<svg viewBox="0 0 64 64" fill="none" xmlns="http://www.w3.org/2000/svg">
<path fill-rule="evenodd" clip-rule="evenodd" d="M20.7676 5.33399H43.2317C45.4143 5.33396 47.2159 5.33393 48.6826 5.45572C50.2061 5.58225 51.6058 5.85388 52.9167 6.53492C54.865 7.54692 56.4535 9.1354 57.4655 11.0836C58.1463 12.3946 58.4181 13.7942 58.5445 15.3178C58.6663 16.7845 58.6663 18.586 58.6663 20.7687V29.8993C58.6663 32.082 58.6663 33.8836 58.5445 35.3503C58.4181 36.8737 58.1463 38.2735 57.4655 39.5844C56.4535 41.5327 54.865 43.1212 52.9167 44.1332C51.6058 44.814 50.2061 45.0857 48.6826 45.2124C47.2159 45.334 45.4143 45.334 43.2317 45.334H34.6663V50.6673H45.333C46.8058 50.6673 47.9997 51.8612 47.9997 53.334C47.9997 54.8068 46.8058 56.0007 45.333 56.0007H18.6663C17.1936 56.0007 15.9997 54.8068 15.9997 53.334C15.9997 51.8612 17.1936 50.6673 18.6663 50.6673H29.333V45.334H20.7676C18.5849 45.334 16.7835 45.334 15.3168 45.2124C13.7932 45.0857 12.3936 44.814 11.0826 44.1332C9.13442 43.1212 7.54594 41.5327 6.53394 39.5844C5.8529 38.2735 5.58128 36.8737 5.45474 35.3503C5.33296 33.8836 5.33298 32.082 5.33301 29.8993V20.7686C5.33298 18.5859 5.33296 16.7845 5.45474 15.3178C5.58128 13.7942 5.8529 12.3946 6.53394 11.0836C7.54594 9.1354 9.13442 7.54692 11.0826 6.53492C12.3936 5.85388 13.7932 5.58225 15.3168 5.45572C16.7835 5.33393 18.5849 5.33396 20.7676 5.33399ZM43.1197 40.0007C45.4423 40.0007 47.0213 39.9985 48.241 39.8972C49.429 39.7985 50.0354 39.6199 50.4581 39.4001C51.4322 38.8943 52.2266 38.0999 52.7325 37.1257C52.9522 36.7031 53.1309 36.0967 53.2295 34.9087C53.3309 33.6889 53.333 32.11 53.333 29.7873V20.8807C53.333 18.5579 53.3309 16.9789 53.2295 15.7592C53.1309 14.5713 52.9522 13.965 52.7325 13.5421C52.2266 12.568 51.4322 11.7738 50.4581 11.2678C50.0354 11.0481 49.429 10.8694 48.241 10.7708C47.0213 10.6695 45.4423 10.6673 43.1197 10.6673H20.8797C18.557 10.6673 16.978 10.6695 15.7582 10.7708C14.5704 10.8694 13.964 11.0481 13.5411 11.2678C12.5671 11.7738 11.7728 12.568 11.2668 13.5421C11.0471 13.965 10.8684 14.5713 10.7698 15.7592C10.6685 16.9789 10.6663 18.5579 10.6663 20.8807V29.7873C10.6663 32.11 10.6685 33.6889 10.7698 34.9087C10.8684 36.0967 11.0471 36.7031 11.2668 37.1257C11.7728 38.0999 12.5671 38.8943 13.5411 39.4001C13.964 39.6199 14.5704 39.7985 15.7582 39.8972C16.978 39.9985 18.557 40.0007 20.8797 40.0007H43.1197Z" fill="black"/>
</svg>
